# xmcd
#
# Track frame offsets: 
#        150
#        14333
#        25854
#        47310
#        61363
#        86054
#        96417
#        118376
#        144867
#        165414
#        188567
#        210061
#        232686
#        258273
#        276722
#        303148
#
# Disc length: 4322 seconds
#
# Revision: 3
# Processed by: cddbd v1.5.1PL0 Copyright (c) Steve Scherf et al.
# Submitted via: ExactAudioCopy v0.95a5
#
DISCID=c810e010
DTITLE=DJ Orbith - Electroklash - Progressive Session 02
DYEAR=2003
DGENRE=Elektro-Techno Breaks
TTITLE0=Endrik Schroeder - Time Machine
TTITLE1=Puberty Love - X-Ray Eyes (David Carretta Remix)
TTITLE2=Felix da Housecat - Harlot B-W Madame Hollywood (Justin Robert
TTITLE2=son Remix)
TTITLE3=Monika Kruse and Voodooamt - Shake That
TTITLE4=Andreas Kaufelt - Impossible Mission
TTITLE5=Marco Lenzi - The Loop Of Love (Tobias von Hofsten Remix)
TTITLE6=Northern Lite - My Pain (Spicial R.E.M.I.X.E.D. Version by The
TTITLE6=Hacker)
TTITLE7=Patrik Skoog - Evitanten
TTITLE8=Legowelt - Disco Rout (Johannes Heil Remix)
TTITLE9=Multitude - Four Season
TTITLE10=Dariush - IRA (Original Mix)
TTITLE11=Bad Pimp S - GIVE.IT.!
TTITLE12=Tomaz vs Filterheadz - Sunshine
TTITLE13=DJ One Finger - Niteclub Skool (Skool Out Vox Mix)
TTITLE14=Renato Cohen - Pontapé
TTITLE15=DJ Orbith - Station (Bonus Track)
EXTD=X-Mag
EXTT0=
EXTT1=
EXTT2=
EXTT3=
EXTT4=
EXTT5=
EXTT6=
EXTT7=
EXTT8=
EXTT9=
EXTT10=
EXTT11=
EXTT12=
EXTT13=
EXTT14=
EXTT15=
PLAYORDER=
